<svg width="25" height="24" viewBox="0 0 25 24" fill="none" xmlns="http://www.w3.org/2000/svg">
<rect x="0.666016" width="24" height="24" rx="4" fill="#8B8B8B" fill-opacity="0.2"/>
<path d="M11.1719 16.5H16.1719C16.7023 16.5 17.211 16.2893 17.5861 15.9142C17.9612 15.5391 18.1719 15.0304 18.1719 14.5V9.5C18.1719 8.96957 17.9612 8.46083 17.5861 8.08575C17.211 7.71068 16.7023 7.5 16.1719 7.5H10.1719C9.64144 7.5 9.13273 7.71068 8.75766 8.08575C8.38259 8.46083 8.17188 8.96957 8.17188 9.5V12" stroke="#95A0B1" stroke-linecap="round" stroke-linejoin="round"/>
<path d="M7.17188 15H12.1719" stroke="#95A0B1" stroke-linecap="round" stroke-linejoin="round"/>
<path d="M7.17188 13.5H9.17188" stroke="#95A0B1" stroke-linecap="round" stroke-linejoin="round"/>
<path d="M17.7705 8.51495C14.9655 13.835 11.3655 13.83 8.56055 8.51495" stroke="#95A0B1" stroke-linecap="round" stroke-linejoin="round"/>
</svg>
